<svg width="32" height="32" viewBox="0 0 32 32" fill="none" xmlns="http://www.w3.org/2000/svg">
<path d="M19.7734 22.6669C20.0217 22.4171 20.1611 22.0792 20.1611 21.7269C20.1611 21.3747 20.0217 21.0367 19.7734 20.7869L15.0534 16.0003L19.7734 11.2803C20.0217 11.0304 20.1611 10.6925 20.1611 10.3403C20.1611 9.98801 20.0217 9.65007 19.7734 9.40026C19.6495 9.27529 19.502 9.17609 19.3395 9.1084C19.177 9.04071 19.0028 9.00586 18.8267 9.00586C18.6507 9.00586 18.4765 9.04071 18.314 9.1084C18.1515 9.17609 18.004 9.27529 17.8801 9.40026L12.2267 15.0536C12.1018 15.1775 12.0026 15.325 11.9349 15.4875C11.8672 15.65 11.8323 15.8242 11.8323 16.0003C11.8323 16.1763 11.8672 16.3505 11.9349 16.513C12.0026 16.6755 12.1018 16.823 12.2267 16.9469L17.8801 22.6669C18.004 22.7919 18.1515 22.8911 18.314 22.9588C18.4765 23.0265 18.6507 23.0613 18.8267 23.0613C19.0028 23.0613 19.177 23.0265 19.3395 22.9588C19.502 22.8911 19.6495 22.7919 19.7734 22.6669Z" fill="#2B1354"/>
</svg>
