<svg width="32" height="32" viewBox="0 0 32 32" fill="none" xmlns="http://www.w3.org/2000/svg">
<path d="M12.2266 9.33308C11.9783 9.58289 11.8389 9.92083 11.8389 10.2731C11.8389 10.6253 11.9783 10.9633 12.2266 11.2131L16.9466 15.9997L12.2266 20.7197C11.9783 20.9696 11.8389 21.3075 11.8389 21.6597C11.8389 22.012 11.9783 22.3499 12.2266 22.5997C12.3505 22.7247 12.498 22.8239 12.6605 22.8916C12.823 22.9593 12.9972 22.9941 13.1733 22.9941C13.3493 22.9941 13.5235 22.9593 13.686 22.8916C13.8485 22.8239 13.996 22.7247 14.1199 22.5997L19.7733 16.9464C19.8982 16.8225 19.9974 16.675 20.0651 16.5125C20.1328 16.35 20.1677 16.1758 20.1677 15.9997C20.1677 15.8237 20.1328 15.6495 20.0651 15.487C19.9974 15.3245 19.8982 15.177 19.7733 15.0531L14.1199 9.33308C13.996 9.2081 13.8485 9.10891 13.686 9.04122C13.5235 8.97353 13.3493 8.93868 13.1733 8.93868C12.9972 8.93868 12.823 8.97353 12.6605 9.04122C12.498 9.10891 12.3505 9.2081 12.2266 9.33308Z" fill="#2B1454"/>
</svg>
